<svg width="360" height="800" viewBox="0 0 360 800" fill="none" xmlns="http://www.w3.org/2000/svg">
<rect width="360" height="800" fill="white"/>
<path d="M113.896 202.351L113.593 168.637L100.393 168.756L100.35 163.971L132.194 163.685L132.237 168.469L119.038 168.588L119.341 202.302L113.896 202.351ZM137.062 202.142L136.8 172.994L141.86 172.948L141.931 180.868L141.418 178.892C142.207 176.868 143.549 175.316 145.446 174.236C147.343 173.155 149.685 172.603 152.472 172.578L152.518 177.692C152.297 177.658 152.077 177.641 151.857 177.643C151.674 177.645 151.491 177.647 151.307 177.648C148.484 177.674 146.255 178.537 144.62 180.239C142.986 181.94 142.183 184.386 142.211 187.576L142.342 202.095L137.062 202.142ZM171.887 202.159C169.394 202.182 167.19 201.743 165.275 200.844C163.397 199.944 161.918 198.564 160.838 196.703C159.794 194.806 159.259 192.427 159.233 189.568L159.083 172.793L164.362 172.746L164.508 188.915C164.533 191.775 165.231 193.914 166.601 195.332C168.007 196.749 169.956 197.447 172.45 197.424C174.283 197.408 175.874 197.027 177.225 196.281C178.574 195.499 179.609 194.39 180.33 192.953C181.05 191.48 181.401 189.717 181.382 187.663L181.247 172.594L186.527 172.547L186.789 201.695L181.784 201.74L181.713 193.876L182.557 195.958C181.621 197.91 180.205 199.426 178.308 200.507C176.411 201.587 174.27 202.138 171.887 202.159ZM209.822 201.818C206.706 201.846 203.95 201.229 201.555 199.968C199.197 198.705 197.348 196.962 196.008 194.737C194.705 192.512 194.04 189.951 194.014 187.055C193.988 184.158 194.588 181.586 195.815 179.338C197.078 177.09 198.804 175.333 200.992 174.067C203.217 172.763 205.723 172.099 208.51 172.074C211.333 172.049 213.832 172.649 216.006 173.877C218.181 175.104 219.883 176.849 221.114 179.111C222.38 181.336 223.027 183.952 223.054 186.959C223.056 187.179 223.04 187.436 223.006 187.729C223.009 188.023 222.993 188.298 222.959 188.555L198.155 188.778L198.12 184.983L220.175 184.785L218.042 186.124C218.061 184.254 217.661 182.589 216.842 181.129C216.022 179.67 214.893 178.543 213.456 177.75C212.055 176.919 210.42 176.512 208.55 176.529C206.717 176.545 205.089 176.982 203.666 177.838C202.244 178.657 201.136 179.822 200.343 181.333C199.549 182.807 199.161 184.497 199.178 186.403L199.186 187.283C199.204 189.227 199.659 190.964 200.553 192.496C201.483 193.991 202.759 195.153 204.38 195.982C206 196.811 207.856 197.216 209.946 197.197C211.669 197.182 213.225 196.874 214.613 196.275C216.037 195.676 217.276 194.784 218.329 193.602L221.274 196.985C219.968 198.537 218.329 199.725 216.356 200.55C214.42 201.374 212.242 201.797 209.822 201.818ZM234.742 194.224L234.791 187.458L251.427 171.963L257.807 171.906L245.051 184.671L242.213 187.117L234.742 194.224ZM230.515 201.302L230.148 160.494L235.428 160.446L235.795 201.255L230.515 201.302ZM252.789 201.102L241.222 187.015L244.594 182.75L259.279 201.044L252.789 201.102Z" fill="url(#paint0_linear_631_2)"/>
<mask id="mask0_631_2" style="mask-type:alpha" maskUnits="userSpaceOnUse" x="139" y="64" width="81" height="81">
<path d="M190.368 65.9198C191.812 66.3488 193.03 67.327 193.76 68.6443C194.49 69.9617 194.674 71.5128 194.272 72.9644C193.871 74.416 192.916 75.6521 191.612 76.4069C190.309 77.1618 188.762 77.3752 187.303 77.0012C180.754 75.2019 173.779 75.7788 167.614 78.6297C161.45 81.4806 156.493 86.4214 153.622 92.5769C150.4 99.4873 150.055 107.395 152.663 114.56C155.271 121.724 160.618 127.56 167.528 130.782L162.668 141.204C142.522 131.81 133.804 107.867 143.2 87.717C151.535 69.843 171.551 60.7148 190.368 65.9198Z" fill="url(#paint1_linear_631_2)"/>
<path d="M209.151 85.8918C209.846 85.5951 210.592 85.4382 211.348 85.43C212.103 85.4219 212.853 85.5627 213.554 85.8444C214.255 86.1261 214.893 86.5432 215.433 87.0717C215.973 87.6003 216.403 88.2301 216.699 88.925C218.924 94.1236 220.026 99.7335 219.932 105.387C219.839 111.041 218.552 116.612 216.157 121.734C206.761 141.883 182.815 150.596 162.669 141.202L167.529 130.78C172.803 133.239 178.7 134.04 184.439 133.077C190.178 132.113 195.49 129.431 199.672 125.384C203.854 121.337 206.709 116.116 207.86 110.412C209.012 104.708 208.405 98.7882 206.12 93.4362C205.521 92.0337 205.505 90.451 206.073 89.0362C206.642 87.6214 207.749 86.4904 209.151 85.8918Z" fill="url(#paint2_linear_631_2)"/>
</mask>
<g mask="url(#mask0_631_2)">
<rect x="158.146" y="46.5953" width="88.1636" height="88.1636" transform="rotate(25 158.146 46.5953)" fill="url(#paint3_angular_631_2)"/>
</g>
<path d="M77.5 337.5C18.5 345.5 0 283 0 283V800H360V148C360 148 333.5 294 287 306C221.143 322.995 218.5 251.739 176.5 258C134.5 264.261 136.5 329.5 77.5 337.5Z" fill="url(#paint4_linear_631_2)"/>
<defs>
<linearGradient id="paint0_linear_631_2" x1="178.486" y1="124.734" x2="179.612" y2="250.061" gradientUnits="userSpaceOnUse">
<stop stop-color="#A6E9FF"/>
<stop offset="1" stop-color="#008BBA"/>
</linearGradient>
<linearGradient id="paint1_linear_631_2" x1="1805.67" y1="1284.35" x2="-1119.59" y2="7557.6" gradientUnits="userSpaceOnUse">
<stop stop-color="white"/>
<stop offset="1" stop-color="white" stop-opacity="0.55"/>
</linearGradient>
<linearGradient id="paint2_linear_631_2" x1="1555.15" y1="1916.83" x2="-623.356" y2="6588.65" gradientUnits="userSpaceOnUse">
<stop stop-color="white"/>
<stop offset="1" stop-color="#D00000"/>
</linearGradient>
<radialGradient id="paint3_angular_631_2" cx="0" cy="0" r="1" gradientUnits="userSpaceOnUse" gradientTransform="translate(198.802 96.2437) rotate(-76.6948) scale(65.118 189.871)">
<stop stop-color="#A6E9FF"/>
<stop offset="1" stop-color="#38ABD2"/>
</radialGradient>
<linearGradient id="paint4_linear_631_2" x1="180" y1="148" x2="178" y2="800" gradientUnits="userSpaceOnUse">
<stop stop-color="#A6E9FF"/>
<stop offset="1" stop-color="#008BBA"/>
</linearGradient>
</defs>
</svg>
