<svg width="160" height="165" viewBox="0 0 160 165" fill="none" xmlns="http://www.w3.org/2000/svg">
<path d="M13.8959 150.661L13.5928 116.947L0.393348 117.066L0.350335 112.281L32.194 111.995L32.2371 116.779L19.0376 116.898L19.3407 150.612L13.8959 150.661ZM37.062 150.452L36.7999 121.304L41.8597 121.258L41.9309 129.178L41.4182 127.202C42.2067 125.178 43.5494 123.626 45.4465 122.546C47.3435 121.465 49.6853 120.913 52.4718 120.888L52.5178 126.002C52.2975 125.968 52.0773 125.951 51.8574 125.953C51.674 125.955 51.4907 125.957 51.3074 125.958C48.4842 125.984 46.2552 126.847 44.6204 128.549C42.9856 130.25 42.1826 132.696 42.2112 135.885L42.3418 150.405L37.062 150.452ZM71.8871 150.469C69.3939 150.492 67.1899 150.053 65.275 149.154C63.3969 148.254 61.9177 146.874 60.8376 145.013C59.7939 143.116 59.2591 140.737 59.2334 137.878L59.0826 121.103L64.3624 121.056L64.5078 137.225C64.5335 140.085 65.2311 142.224 66.6005 143.642C68.0067 145.059 69.9564 145.756 72.4496 145.734C74.2829 145.718 75.8745 145.337 77.2245 144.591C78.5742 143.809 79.6093 142.7 80.3297 141.263C81.0498 139.79 81.4007 138.027 81.3822 135.973L81.2467 120.904L86.5265 120.857L86.7886 150.005L81.7838 150.05L81.7131 142.186L82.5568 144.268C81.621 146.22 80.2046 147.736 78.3075 148.817C76.4105 149.897 74.2704 150.448 71.8871 150.469ZM109.822 150.128C106.706 150.156 103.95 149.539 101.555 148.278C99.1972 147.015 97.3481 145.272 96.0081 143.047C94.7047 140.822 94.04 138.261 94.0139 135.365C93.9879 132.468 94.5881 129.896 95.8146 127.648C97.0778 125.4 98.8038 123.643 100.992 122.377C103.217 121.073 105.723 120.409 108.51 120.384C111.333 120.358 113.832 120.959 116.006 122.187C118.181 123.414 119.883 125.159 121.114 127.421C122.38 129.646 123.027 132.262 123.054 135.269C123.056 135.489 123.04 135.746 123.006 136.039C123.009 136.333 122.993 136.608 122.959 136.865L98.1546 137.088L98.1205 133.293L120.175 133.095L118.042 134.434C118.061 132.564 117.661 130.899 116.842 129.439C116.022 127.98 114.893 126.853 113.456 126.06C112.055 125.229 110.42 124.822 108.55 124.839C106.717 124.855 105.089 125.291 103.666 126.148C102.244 126.967 101.136 128.132 100.343 129.643C99.5493 131.117 99.1611 132.807 99.1783 134.713L99.1862 135.593C99.2037 137.537 99.6593 139.274 100.553 140.806C101.483 142.301 102.759 143.463 104.38 144.292C106 145.121 107.856 145.526 109.946 145.507C111.669 145.491 113.225 145.184 114.613 144.585C116.037 143.986 117.276 143.094 118.329 141.911L121.274 145.295C119.968 146.847 118.329 148.035 116.356 148.859C114.42 149.684 112.242 150.107 109.822 150.128ZM134.742 142.534L134.791 135.768L151.427 120.273L157.807 120.216L145.051 132.981L142.213 135.427L134.742 142.534ZM130.515 149.612L130.148 108.804L135.428 108.756L135.795 149.565L130.515 149.612ZM152.789 149.412L141.222 135.325L144.594 131.06L159.279 149.354L152.789 149.412Z" fill="url(#paint0_linear_642_256)"/>
<mask id="mask0_642_256" style="mask-type:alpha" maskUnits="userSpaceOnUse" x="39" y="12" width="81" height="82">
<path d="M90.3681 14.2298C91.8118 14.6588 93.0296 15.637 93.7597 16.9544C94.4897 18.2717 94.6738 19.8228 94.2722 21.2744C93.8707 22.726 92.9157 23.9621 91.6124 24.7169C90.3092 25.4718 88.7617 25.6852 87.3028 25.3112C80.7536 23.5119 73.7788 24.0888 67.6142 26.9397C61.4496 29.7906 56.493 34.7314 53.6225 40.887C50.4002 47.7973 50.0549 55.7047 52.6627 62.8695C55.2705 70.0344 60.6178 75.8699 67.5281 79.0922L62.6681 89.5144C42.5221 80.1202 33.8044 56.1766 43.2003 36.027C51.5351 18.153 71.5507 9.02477 90.3681 14.2298Z" fill="url(#paint1_linear_642_256)"/>
<path d="M109.151 34.2019C109.846 33.9051 110.593 33.7482 111.348 33.7401C112.103 33.7319 112.853 33.8727 113.554 34.1544C114.255 34.4361 114.893 34.8532 115.433 35.3818C115.973 35.9104 116.403 36.5401 116.699 37.2351C118.924 42.4336 120.026 48.0435 119.932 53.6974C119.839 59.3513 118.552 64.9217 116.157 70.0439C106.761 90.1934 82.8155 98.906 62.6694 89.5117L67.5294 79.0895C72.8035 81.549 78.6999 82.35 84.439 81.3866C90.1781 80.4232 95.4897 77.7408 99.6717 73.694C103.854 69.6472 106.709 64.4265 107.86 58.7221C109.012 53.0177 108.405 47.0983 106.12 41.7462C105.522 40.3437 105.505 38.7611 106.073 37.3463C106.642 35.9315 107.749 34.8004 109.151 34.2019Z" fill="url(#paint2_linear_642_256)"/>
</mask>
<g mask="url(#mask0_642_256)">
<rect x="58.1457" y="-5.09467" width="88.1636" height="88.1636" transform="rotate(25 58.1457 -5.09467)" fill="url(#paint3_angular_642_256)"/>
</g>
<defs>
<linearGradient id="paint0_linear_642_256" x1="78.4858" y1="73.0444" x2="79.6125" y2="198.371" gradientUnits="userSpaceOnUse">
<stop stop-color="white"/>
<stop offset="1" stop-color="#CEF3FF"/>
</linearGradient>
<linearGradient id="paint1_linear_642_256" x1="1705.67" y1="1232.66" x2="-1219.59" y2="7505.91" gradientUnits="userSpaceOnUse">
<stop stop-color="white"/>
<stop offset="1" stop-color="white" stop-opacity="0.55"/>
</linearGradient>
<linearGradient id="paint2_linear_642_256" x1="1455.15" y1="1865.14" x2="-723.356" y2="6536.96" gradientUnits="userSpaceOnUse">
<stop stop-color="white"/>
<stop offset="1" stop-color="#D00000"/>
</linearGradient>
<radialGradient id="paint3_angular_642_256" cx="0" cy="0" r="1" gradientUnits="userSpaceOnUse" gradientTransform="translate(98.8024 44.5537) rotate(-76.6948) scale(65.118 189.871)">
<stop stop-color="#F2FCFF"/>
<stop offset="1" stop-color="#CEF3FF"/>
</radialGradient>
</defs>
</svg>
